<svg version="1.1" id="Layer_1" xmlns="http://www.w3.org/2000/svg" xmlns:xlink="http://www.w3.org/1999/xlink" x="0px" y="0px"
	 width="100%" viewBox="0 0 500 500" enable-background="new 0 0 500 500" xml:space="preserve">
<path fill="#FCFDFC" opacity="1.000000" stroke="none" 
	d="
M1.000000,174.000000 
	C1.000000,116.014359 1.000000,58.528713 1.000000,1.021535 
	C167.610703,1.021535 334.221405,1.021535 500.916046,1.021535 
	C500.916046,167.569046 500.916046,334.138153 500.916046,500.853638 
	C334.333435,500.853638 167.666733,500.853638 1.000000,500.853638 
	C1.000000,392.111816 1.000000,283.305908 1.000000,174.000000 
M56.500111,341.718872 
	C50.171185,341.718903 43.842182,341.699860 37.513344,341.723450 
	C27.917780,341.759186 25.083637,344.603668 25.081993,354.223633 
	C25.074848,396.027710 25.075075,437.831787 25.082483,479.635864 
	C25.084217,489.416229 27.836508,492.272888 37.391945,492.277924 
	C75.531906,492.297913 113.671898,492.298248 151.811859,492.277191 
	C161.070892,492.272095 163.989655,489.299683 163.991379,480.006592 
	C163.999115,438.202515 163.996765,396.398438 163.993332,354.594360 
	C163.992493,344.415924 161.276291,341.726166 150.934723,341.722717 
	C119.789856,341.712280 88.644981,341.718903 56.500111,341.718872 
M163.992538,215.500000 
	C163.992493,206.167252 164.007401,196.834457 163.987991,187.501755 
	C163.970139,178.918167 160.871490,175.769150 152.274826,175.763947 
	C113.776993,175.740616 75.279137,175.739716 36.781311,175.764236 
	C28.286648,175.769638 25.077335,178.996277 25.072794,187.533417 
	C25.050274,229.864380 25.048309,272.195343 25.076450,314.526306 
	C25.081928,322.766388 28.387516,326.032135 36.545395,326.034515 
	C74.876579,326.045685 113.207756,326.042938 151.538940,326.038788 
	C161.053177,326.037750 163.986954,323.088440 163.989395,313.494568 
	C163.997589,281.163055 163.992508,248.831528 163.992538,215.500000 
M339.005859,14.956404 
	C338.673004,16.904362 338.052094,18.851944 338.049591,20.800329 
	C337.994141,63.609123 337.991364,106.418015 338.022156,149.226852 
	C338.027618,156.856750 341.345093,160.233414 348.921326,160.241455 
	C387.898987,160.282837 426.876770,160.283325 465.854431,160.242493 
	C473.501740,160.234482 476.883698,156.911804 476.891663,149.343475 
	C476.937042,106.368073 476.941620,63.392578 476.889130,20.417208 
	C476.880280,13.163161 473.422760,9.764980 466.122803,9.756259 
	C426.978577,9.709493 387.834198,9.762391 348.690033,9.693574 
	C344.705872,9.686569 341.515045,10.745740 339.005859,14.956404 
M443.500122,341.718842 
	C412.021729,341.719543 380.543304,341.694733 349.064972,341.739716 
	C341.631073,341.750336 338.040466,345.073029 338.032135,352.078918 
	C337.980652,395.382385 337.981262,438.685974 338.032745,481.989441 
	C338.040680,488.664124 341.533020,492.226471 348.152252,492.237244 
	C387.624847,492.301605 427.097656,492.301544 466.570312,492.244476 
	C473.269562,492.234772 476.861816,488.780029 476.873322,482.157684 
	C476.949036,438.687775 476.951813,395.217590 476.871246,351.747711 
	C476.859070,345.182678 473.214752,341.845947 466.484619,341.751862 
	C459.157745,341.649414 451.828430,341.722351 443.500122,341.718842 
M429.500244,175.566849 
	C402.846039,175.567291 376.191742,175.527924 349.537689,175.591827 
	C341.276550,175.611633 338.019196,178.937088 338.015137,187.093704 
	C337.993988,229.573822 337.997009,272.053955 338.012360,314.534058 
	C338.015350,322.796051 341.256134,326.052765 349.410919,326.054779 
	C388.059509,326.064362 426.708069,326.064178 465.356659,326.055420 
	C473.629120,326.053528 476.897980,322.888916 476.903595,314.673309 
	C476.932648,272.193207 476.930634,229.713074 476.907043,187.232956 
	C476.902466,178.974167 473.685211,175.659058 465.483704,175.592438 
	C453.823273,175.497711 442.161469,175.567368 429.500244,175.566849 
M78.499939,160.264679 
	C102.998589,160.263397 127.497307,160.293182 151.995865,160.243240 
	C160.066025,160.226791 163.968796,156.376587 163.975555,148.408173 
	C164.011429,106.077209 164.012802,63.746189 163.973312,21.415236 
	C163.966110,13.698241 160.058411,9.767305 152.328186,9.757489 
	C113.830383,9.708599 75.332458,9.709319 36.834644,9.754735 
	C29.011602,9.763964 25.118698,13.564294 25.108253,21.332630 
	C25.051109,63.830196 25.049646,106.327934 25.114445,148.825485 
	C25.125860,156.312653 29.072807,160.185074 36.502411,160.231613 
	C50.167782,160.317230 63.834042,160.261581 78.499939,160.264679 
M199.521317,492.285675 
	C236.018631,492.285217 272.515961,492.304443 309.013245,492.269440 
	C317.332306,492.261475 320.053619,489.471252 320.055206,481.219208 
	C320.063477,438.389038 320.064087,395.558899 320.055756,352.728729 
	C320.054138,344.494232 317.344513,341.743347 308.971741,341.736237 
	C270.307953,341.703369 231.644119,341.703064 192.980347,341.736542 
	C184.644745,341.743774 181.941193,344.515930 181.939804,352.772736 
	C181.932892,393.769684 182.170715,434.768677 181.819244,475.762604 
	C181.684433,491.487518 184.418564,492.841949 199.521317,492.285675 
M252.500229,175.567673 
	C232.682632,175.568359 212.864868,175.521805 193.047516,175.592331 
	C184.801285,175.621674 181.941605,178.572052 181.940186,186.676514 
	C181.932739,229.475937 181.932358,272.275360 181.942230,315.074768 
	C181.944092,323.204224 184.823425,326.052795 193.033173,326.054810 
	C231.502686,326.064301 269.972198,326.062622 308.441711,326.057098 
	C317.351715,326.055847 320.055511,323.386292 320.056793,314.582764 
	C320.062927,272.282959 320.061554,229.983124 320.058411,187.683304 
	C320.057678,178.152466 317.540649,175.596130 307.957062,175.578339 
	C289.804840,175.544647 271.652527,175.567978 252.500229,175.567673 
M320.055298,68.500000 
	C320.054810,52.675087 320.072662,36.850143 320.046021,21.025276 
	C320.032867,13.206750 316.717896,9.769824 308.835571,9.759129 
	C270.356140,9.706914 231.876572,9.709400 193.397141,9.754454 
	C185.167267,9.764090 181.950500,13.088914 181.948059,21.284292 
	C181.935425,63.761662 181.935333,106.239044 181.950607,148.716415 
	C181.953552,156.918793 185.162018,160.228821 193.409027,160.238937 
	C231.721878,160.285950 270.034851,160.283096 308.347717,160.243607 
	C316.881744,160.234802 320.044342,156.970901 320.048828,148.457947 
	C320.062714,122.138641 320.054779,95.819313 320.055298,68.500000 
z"/>
<path fill="#100F0F" opacity="1.000000" stroke="none" 
	d="
M57.000114,341.718872 
	C88.644981,341.718903 119.789856,341.712280 150.934723,341.722717 
	C161.276291,341.726166 163.992493,344.415924 163.993332,354.594360 
	C163.996765,396.398438 163.999115,438.202515 163.991379,480.006592 
	C163.989655,489.299683 161.070892,492.272095 151.811859,492.277191 
	C113.671898,492.298248 75.531906,492.297913 37.391945,492.277924 
	C27.836508,492.272888 25.084217,489.416229 25.082483,479.635864 
	C25.075075,437.831787 25.074848,396.027710 25.081993,354.223633 
	C25.083637,344.603668 27.917780,341.759186 37.513344,341.723450 
	C43.842182,341.699860 50.171185,341.718903 57.000114,341.718872 
z"/>
<path fill="#FFBD59" opacity="1.000000" stroke="none" 
	d="
M163.992523,216.000000 
	C163.992508,248.831528 163.997589,281.163055 163.989395,313.494568 
	C163.986954,323.088440 161.053177,326.037750 151.538940,326.038788 
	C113.207756,326.042938 74.876579,326.045685 36.545395,326.034515 
	C28.387516,326.032135 25.081928,322.766388 25.076450,314.526306 
	C25.048309,272.195343 25.050274,229.864380 25.072794,187.533417 
	C25.077335,178.996277 28.286648,175.769638 36.781311,175.764236 
	C75.279137,175.739716 113.776993,175.740616 152.274826,175.763947 
	C160.871490,175.769150 163.970139,178.918167 163.987991,187.501755 
	C164.007401,196.834457 163.992493,206.167252 163.992523,216.000000 
z"/>
<path fill="#00BF63" opacity="1.000000" stroke="none" 
	d="
M339.181152,14.589631 
	C341.515045,10.745740 344.705872,9.686569 348.690033,9.693574 
	C387.834198,9.762391 426.978577,9.709493 466.122803,9.756259 
	C473.422760,9.764980 476.880280,13.163161 476.889130,20.417208 
	C476.941620,63.392578 476.937042,106.368073 476.891663,149.343475 
	C476.883698,156.911804 473.501740,160.234482 465.854431,160.242493 
	C426.876770,160.283325 387.898987,160.282837 348.921326,160.241455 
	C341.345093,160.233414 338.027618,156.856750 338.022156,149.226852 
	C337.991364,106.418015 337.994141,63.609123 338.049591,20.800329 
	C338.052094,18.851944 338.673004,16.904362 339.181152,14.589631 
z"/>
<path fill="#100F0F" opacity="1.000000" stroke="none" 
	d="
M444.000153,341.718811 
	C451.828430,341.722351 459.157745,341.649414 466.484619,341.751862 
	C473.214752,341.845947 476.859070,345.182678 476.871246,351.747711 
	C476.951813,395.217590 476.949036,438.687775 476.873322,482.157684 
	C476.861816,488.780029 473.269562,492.234772 466.570312,492.244476 
	C427.097656,492.301544 387.624847,492.301605 348.152252,492.237244 
	C341.533020,492.226471 338.040680,488.664124 338.032745,481.989441 
	C337.981262,438.685974 337.980652,395.382385 338.032135,352.078918 
	C338.040466,345.073029 341.631073,341.750336 349.064972,341.739716 
	C380.543304,341.694733 412.021729,341.719543 444.000153,341.718811 
z"/>
<path fill="#100F0F" opacity="1.000000" stroke="none" 
	d="
M430.000244,175.566833 
	C442.161469,175.567368 453.823273,175.497711 465.483704,175.592438 
	C473.685211,175.659058 476.902466,178.974167 476.907043,187.232956 
	C476.930634,229.713074 476.932648,272.193207 476.903595,314.673309 
	C476.897980,322.888916 473.629120,326.053528 465.356659,326.055420 
	C426.708069,326.064178 388.059509,326.064362 349.410919,326.054779 
	C341.256134,326.052765 338.015350,322.796051 338.012360,314.534058 
	C337.997009,272.053955 337.993988,229.573822 338.015137,187.093704 
	C338.019196,178.937088 341.276550,175.611633 349.537689,175.591827 
	C376.191742,175.527924 402.846039,175.567291 430.000244,175.566833 
z"/>
<path fill="#00BF63" opacity="1.000000" stroke="none" 
	d="
M77.999939,160.264740 
	C63.834042,160.261581 50.167782,160.317230 36.502411,160.231613 
	C29.072807,160.185074 25.125860,156.312653 25.114445,148.825485 
	C25.049646,106.327934 25.051109,63.830196 25.108253,21.332630 
	C25.118698,13.564294 29.011602,9.763964 36.834644,9.754735 
	C75.332458,9.709319 113.830383,9.708599 152.328186,9.757489 
	C160.058411,9.767305 163.966110,13.698241 163.973312,21.415236 
	C164.012802,63.746189 164.011429,106.077209 163.975555,148.408173 
	C163.968796,156.376587 160.066025,160.226791 151.995865,160.243240 
	C127.497307,160.293182 102.998589,160.263397 77.999939,160.264740 
z"/>
<path fill="#100F0F" opacity="1.000000" stroke="none" 
	d="
M199.026794,492.285675 
	C184.418564,492.841949 181.684433,491.487518 181.819244,475.762604 
	C182.170715,434.768677 181.932892,393.769684 181.939804,352.772736 
	C181.941193,344.515930 184.644745,341.743774 192.980347,341.736542 
	C231.644119,341.703064 270.307953,341.703369 308.971741,341.736237 
	C317.344513,341.743347 320.054138,344.494232 320.055756,352.728729 
	C320.064087,395.558899 320.063477,438.389038 320.055206,481.219208 
	C320.053619,489.471252 317.332306,492.261475 309.013245,492.269440 
	C272.515961,492.304443 236.018631,492.285217 199.026794,492.285675 
z"/>
<path fill="#100F0F" opacity="1.000000" stroke="none" 
	d="
M253.000244,175.567657 
	C271.652527,175.567978 289.804840,175.544647 307.957062,175.578339 
	C317.540649,175.596130 320.057678,178.152466 320.058411,187.683304 
	C320.061554,229.983124 320.062927,272.282959 320.056793,314.582764 
	C320.055511,323.386292 317.351715,326.055847 308.441711,326.057098 
	C269.972198,326.062622 231.502686,326.064301 193.033173,326.054810 
	C184.823425,326.052795 181.944092,323.204224 181.942230,315.074768 
	C181.932358,272.275360 181.932739,229.475937 181.940186,186.676514 
	C181.941605,178.572052 184.801285,175.621674 193.047516,175.592331 
	C212.864868,175.521805 232.682632,175.568359 253.000244,175.567657 
z"/>
<path fill="#00BF63" opacity="1.000000" stroke="none" 
	d="
M320.055298,69.000000 
	C320.054779,95.819313 320.062714,122.138641 320.048828,148.457947 
	C320.044342,156.970901 316.881744,160.234802 308.347717,160.243607 
	C270.034851,160.283096 231.721878,160.285950 193.409027,160.238937 
	C185.162018,160.228821 181.953552,156.918793 181.950607,148.716415 
	C181.935333,106.239044 181.935425,63.761662 181.948059,21.284292 
	C181.950500,13.088914 185.167267,9.764090 193.397141,9.754454 
	C231.876572,9.709400 270.356140,9.706914 308.835571,9.759129 
	C316.717896,9.769824 320.032867,13.206750 320.046021,21.025276 
	C320.072662,36.850143 320.054810,52.675087 320.055298,69.000000 
z"/>
</svg>